<svg xmlns="http://www.w3.org/2000/svg" xmlns:xlink="http://www.w3.org/1999/xlink" width="160" zoomAndPan="magnify" viewBox="0 0 120 30.000001" height="40" preserveAspectRatio="xMidYMid meet" version="1.2"><defs><clipPath id="40c0719968"><rect x="0" width="77" y="0" height="24"/></clipPath><clipPath id="ea519e9f11"><path d="M 8.90625 2.730469 L 32.238281 2.730469 L 32.238281 26.332031 L 8.90625 26.332031 Z M 8.90625 2.730469 "/></clipPath><clipPath id="db27faca17"><path d="M 17.617188 2.730469 L 23.527344 2.730469 C 28.335938 2.730469 32.238281 6.628906 32.238281 11.441406 L 32.238281 17.59375 C 32.238281 22.402344 28.335938 26.300781 23.527344 26.300781 L 17.617188 26.300781 C 12.804688 26.300781 8.90625 22.402344 8.90625 17.59375 L 8.90625 11.441406 C 8.90625 6.628906 12.804688 2.730469 17.617188 2.730469 Z M 17.617188 2.730469 "/></clipPath><clipPath id="b07f44991e"><path d="M 0.90625 0.730469 L 24.238281 0.730469 L 24.238281 24.332031 L 0.90625 24.332031 Z M 0.90625 0.730469 "/></clipPath><clipPath id="7c2cf98118"><path d="M 9.617188 0.730469 L 15.527344 0.730469 C 20.335938 0.730469 24.238281 4.628906 24.238281 9.441406 L 24.238281 15.59375 C 24.238281 20.402344 20.335938 24.300781 15.527344 24.300781 L 9.617188 24.300781 C 4.804688 24.300781 0.90625 20.402344 0.90625 15.59375 L 0.90625 9.441406 C 0.90625 4.628906 4.804688 0.730469 9.617188 0.730469 Z M 9.617188 0.730469 "/></clipPath><clipPath id="fa6598a477"><rect x="0" width="25" y="0" height="25"/></clipPath><clipPath id="159cf6490c"><rect x="0" width="13" y="0" height="23"/></clipPath></defs><g id="b04c92ef67"><g transform="matrix(1,0,0,1,35,3)"><g clip-path="url(#40c0719968)"><g style="fill:#ffffff;fill-opacity:1;"><g transform="translate(0.596886, 17.296314)"><path style="stroke:none" d="M 3.359375 0.078125 L 3.359375 -1.578125 L 6.6875 -1.578125 C 7.488281 -1.578125 8.203125 -1.707031 8.828125 -1.96875 C 9.453125 -2.226562 9.988281 -2.585938 10.4375 -3.046875 C 10.882812 -3.515625 11.222656 -4.054688 11.453125 -4.671875 C 11.679688 -5.296875 11.796875 -5.96875 11.796875 -6.6875 C 11.796875 -7.4375 11.679688 -8.117188 11.453125 -8.734375 C 11.222656 -9.347656 10.882812 -9.882812 10.4375 -10.34375 C 9.988281 -10.800781 9.453125 -11.148438 8.828125 -11.390625 C 8.203125 -11.640625 7.488281 -11.765625 6.6875 -11.765625 L 3.359375 -11.765625 L 3.359375 -13.40625 L 6.5 -13.40625 C 7.707031 -13.40625 8.753906 -13.21875 9.640625 -12.84375 C 10.535156 -12.476562 11.273438 -11.976562 11.859375 -11.34375 C 12.453125 -10.71875 12.894531 -10.019531 13.1875 -9.25 C 13.476562 -8.476562 13.625 -7.691406 13.625 -6.890625 L 13.625 -6.484375 C 13.625 -5.703125 13.476562 -4.921875 13.1875 -4.140625 C 12.894531 -3.367188 12.453125 -2.664062 11.859375 -2.03125 C 11.273438 -1.394531 10.535156 -0.882812 9.640625 -0.5 C 8.753906 -0.113281 7.707031 0.078125 6.5 0.078125 Z M 1.9375 0.078125 L 1.9375 -13.40625 L 3.71875 -13.40625 L 3.71875 0.078125 Z M 1.9375 0.078125 "/></g></g><g style="fill:#ffffff;fill-opacity:1;"><g transform="translate(15.043508, 17.296314)"><path style="stroke:none" d="M 7.578125 0 L 7.578125 -2.921875 L 7.28125 -2.921875 L 7.28125 -6.296875 C 7.28125 -6.972656 7.109375 -7.476562 6.765625 -7.8125 C 6.421875 -8.15625 5.914062 -8.328125 5.25 -8.328125 C 4.863281 -8.328125 4.46875 -8.320312 4.0625 -8.3125 C 3.664062 -8.300781 3.285156 -8.285156 2.921875 -8.265625 C 2.554688 -8.253906 2.238281 -8.238281 1.96875 -8.21875 L 1.96875 -9.75 C 2.238281 -9.78125 2.519531 -9.800781 2.8125 -9.8125 C 3.113281 -9.832031 3.421875 -9.84375 3.734375 -9.84375 C 4.054688 -9.851562 4.363281 -9.859375 4.65625 -9.859375 C 5.65625 -9.859375 6.472656 -9.738281 7.109375 -9.5 C 7.742188 -9.269531 8.210938 -8.882812 8.515625 -8.34375 C 8.816406 -7.8125 8.96875 -7.085938 8.96875 -6.171875 L 8.96875 0 Z M 4.390625 0.25 C 3.648438 0.25 3.015625 0.125 2.484375 -0.125 C 1.960938 -0.375 1.554688 -0.734375 1.265625 -1.203125 C 0.984375 -1.679688 0.84375 -2.253906 0.84375 -2.921875 C 0.84375 -3.617188 0.992188 -4.195312 1.296875 -4.65625 C 1.609375 -5.125 2.0625 -5.472656 2.65625 -5.703125 C 3.257812 -5.941406 3.984375 -6.0625 4.828125 -6.0625 L 7.46875 -6.0625 L 7.46875 -4.75 L 4.75 -4.75 C 4.039062 -4.75 3.5 -4.578125 3.125 -4.234375 C 2.75 -3.890625 2.5625 -3.453125 2.5625 -2.921875 C 2.5625 -2.390625 2.75 -1.957031 3.125 -1.625 C 3.5 -1.289062 4.039062 -1.125 4.75 -1.125 C 5.164062 -1.125 5.5625 -1.203125 5.9375 -1.359375 C 6.3125 -1.515625 6.625 -1.769531 6.875 -2.125 C 7.125 -2.488281 7.257812 -2.984375 7.28125 -3.609375 L 7.765625 -2.921875 C 7.703125 -2.222656 7.53125 -1.640625 7.25 -1.171875 C 6.976562 -0.703125 6.601562 -0.347656 6.125 -0.109375 C 5.644531 0.128906 5.066406 0.25 4.390625 0.25 Z M 4.390625 0.25 "/></g></g><g style="fill:#ffffff;fill-opacity:1;"><g transform="translate(25.545158, 17.296314)"><path style="stroke:none" d="M 1.6875 0 L 1.6875 -9.75 L 3.0625 -9.75 L 3.0625 -5.578125 L 2.84375 -5.578125 C 2.84375 -6.523438 2.96875 -7.328125 3.21875 -7.984375 C 3.46875 -8.648438 3.84375 -9.160156 4.34375 -9.515625 C 4.84375 -9.867188 5.476562 -10.046875 6.25 -10.046875 L 6.3125 -10.046875 C 7.082031 -10.046875 7.71875 -9.867188 8.21875 -9.515625 C 8.726562 -9.160156 9.101562 -8.648438 9.34375 -7.984375 C 9.59375 -7.328125 9.71875 -6.523438 9.71875 -5.578125 L 9.203125 -5.578125 C 9.203125 -6.523438 9.328125 -7.328125 9.578125 -7.984375 C 9.835938 -8.648438 10.21875 -9.160156 10.71875 -9.515625 C 11.226562 -9.867188 11.867188 -10.046875 12.640625 -10.046875 L 12.71875 -10.046875 C 13.476562 -10.046875 14.113281 -9.867188 14.625 -9.515625 C 15.132812 -9.160156 15.515625 -8.648438 15.765625 -7.984375 C 16.015625 -7.328125 16.140625 -6.523438 16.140625 -5.578125 L 16.140625 0 L 14.390625 0 L 14.390625 -5.953125 C 14.390625 -6.742188 14.191406 -7.351562 13.796875 -7.78125 C 13.410156 -8.21875 12.875 -8.4375 12.1875 -8.4375 C 11.46875 -8.4375 10.890625 -8.207031 10.453125 -7.75 C 10.015625 -7.289062 9.796875 -6.65625 9.796875 -5.84375 L 9.796875 0 L 8.03125 0 L 8.03125 -5.953125 C 8.03125 -6.742188 7.835938 -7.351562 7.453125 -7.78125 C 7.066406 -8.21875 6.523438 -8.4375 5.828125 -8.4375 C 5.109375 -8.4375 4.53125 -8.207031 4.09375 -7.75 C 3.65625 -7.289062 3.4375 -6.65625 3.4375 -5.84375 L 3.4375 0 Z M 1.6875 0 "/></g></g><g style="fill:#ffffff;fill-opacity:1;"><g transform="translate(43.224461, 17.296314)"><path style="stroke:none" d="M 6.171875 0.328125 C 5.316406 0.328125 4.566406 0.179688 3.921875 -0.109375 C 3.273438 -0.398438 2.726562 -0.785156 2.28125 -1.265625 C 1.84375 -1.742188 1.507812 -2.28125 1.28125 -2.875 C 1.0625 -3.476562 0.953125 -4.09375 0.953125 -4.71875 L 0.953125 -5.046875 C 0.953125 -5.660156 1.066406 -6.269531 1.296875 -6.875 C 1.523438 -7.476562 1.863281 -8.019531 2.3125 -8.5 C 2.769531 -8.976562 3.320312 -9.359375 3.96875 -9.640625 C 4.613281 -9.929688 5.347656 -10.078125 6.171875 -10.078125 C 7.003906 -10.078125 7.742188 -9.929688 8.390625 -9.640625 C 9.035156 -9.359375 9.582031 -8.976562 10.03125 -8.5 C 10.476562 -8.019531 10.816406 -7.476562 11.046875 -6.875 C 11.273438 -6.269531 11.390625 -5.660156 11.390625 -5.046875 L 11.390625 -4.71875 C 11.390625 -4.09375 11.273438 -3.476562 11.046875 -2.875 C 10.828125 -2.28125 10.492188 -1.742188 10.046875 -1.265625 C 9.609375 -0.785156 9.066406 -0.398438 8.421875 -0.109375 C 7.773438 0.179688 7.023438 0.328125 6.171875 0.328125 Z M 6.171875 -1.234375 C 6.898438 -1.234375 7.523438 -1.394531 8.046875 -1.71875 C 8.566406 -2.039062 8.960938 -2.476562 9.234375 -3.03125 C 9.503906 -3.582031 9.640625 -4.195312 9.640625 -4.875 C 9.640625 -5.570312 9.5 -6.191406 9.21875 -6.734375 C 8.9375 -7.285156 8.535156 -7.71875 8.015625 -8.03125 C 7.503906 -8.351562 6.890625 -8.515625 6.171875 -8.515625 C 5.460938 -8.515625 4.847656 -8.351562 4.328125 -8.03125 C 3.804688 -7.71875 3.40625 -7.285156 3.125 -6.734375 C 2.84375 -6.191406 2.703125 -5.570312 2.703125 -4.875 C 2.703125 -4.195312 2.835938 -3.582031 3.109375 -3.03125 C 3.390625 -2.476562 3.785156 -2.039062 4.296875 -1.71875 C 4.816406 -1.394531 5.441406 -1.234375 6.171875 -1.234375 Z M 6.171875 -1.234375 "/></g></g><g style="fill:#ffffff;fill-opacity:1;"><g transform="translate(55.570755, 17.296314)"><path style="stroke:none" d="M 1.796875 0 L 1.796875 -13.328125 L 3.546875 -13.328125 L 3.546875 0 Z M 0.4375 -11.953125 L 0.4375 -13.328125 L 3.546875 -13.328125 L 3.546875 -11.953125 Z M 0.4375 -11.953125 "/></g></g><g style="fill:#ffffff;fill-opacity:1;"><g transform="translate(60.794182, 17.296314)"><path style="stroke:none" d="M 7.578125 0 L 7.578125 -2.921875 L 7.28125 -2.921875 L 7.28125 -6.296875 C 7.28125 -6.972656 7.109375 -7.476562 6.765625 -7.8125 C 6.421875 -8.15625 5.914062 -8.328125 5.25 -8.328125 C 4.863281 -8.328125 4.46875 -8.320312 4.0625 -8.3125 C 3.664062 -8.300781 3.285156 -8.285156 2.921875 -8.265625 C 2.554688 -8.253906 2.238281 -8.238281 1.96875 -8.21875 L 1.96875 -9.75 C 2.238281 -9.78125 2.519531 -9.800781 2.8125 -9.8125 C 3.113281 -9.832031 3.421875 -9.84375 3.734375 -9.84375 C 4.054688 -9.851562 4.363281 -9.859375 4.65625 -9.859375 C 5.65625 -9.859375 6.472656 -9.738281 7.109375 -9.5 C 7.742188 -9.269531 8.210938 -8.882812 8.515625 -8.34375 C 8.816406 -7.8125 8.96875 -7.085938 8.96875 -6.171875 L 8.96875 0 Z M 4.390625 0.25 C 3.648438 0.25 3.015625 0.125 2.484375 -0.125 C 1.960938 -0.375 1.554688 -0.734375 1.265625 -1.203125 C 0.984375 -1.679688 0.84375 -2.253906 0.84375 -2.921875 C 0.84375 -3.617188 0.992188 -4.195312 1.296875 -4.65625 C 1.609375 -5.125 2.0625 -5.472656 2.65625 -5.703125 C 3.257812 -5.941406 3.984375 -6.0625 4.828125 -6.0625 L 7.46875 -6.0625 L 7.46875 -4.75 L 4.75 -4.75 C 4.039062 -4.75 3.5 -4.578125 3.125 -4.234375 C 2.75 -3.890625 2.5625 -3.453125 2.5625 -2.921875 C 2.5625 -2.390625 2.75 -1.957031 3.125 -1.625 C 3.5 -1.289062 4.039062 -1.125 4.75 -1.125 C 5.164062 -1.125 5.5625 -1.203125 5.9375 -1.359375 C 6.3125 -1.515625 6.625 -1.769531 6.875 -2.125 C 7.125 -2.488281 7.257812 -2.984375 7.28125 -3.609375 L 7.765625 -2.921875 C 7.703125 -2.222656 7.53125 -1.640625 7.25 -1.171875 C 6.976562 -0.703125 6.601562 -0.347656 6.125 -0.109375 C 5.644531 0.128906 5.066406 0.25 4.390625 0.25 Z M 4.390625 0.25 "/></g></g><g style="fill:#ffffff;fill-opacity:1;"><g transform="translate(71.295832, 17.296314)"><path style="stroke:none" d="M 1.328125 0 L 1.328125 -2.234375 L 3.453125 -2.234375 L 3.453125 0 Z M 1.328125 0 "/></g></g></g></g><g clip-rule="nonzero" clip-path="url(#ea519e9f11)"><g clip-rule="nonzero" clip-path="url(#db27faca17)"><g transform="matrix(1,0,0,1,8,2)"><g clip-path="url(#fa6598a477)"><g clip-rule="nonzero" clip-path="url(#b07f44991e)"><g clip-rule="nonzero" clip-path="url(#7c2cf98118)"><path style=" stroke:none;fill-rule:nonzero;fill:#c1ff72;fill-opacity:1;" d="M 0.90625 0.730469 L 24.238281 0.730469 L 24.238281 24.332031 L 0.90625 24.332031 Z M 0.90625 0.730469 "/></g></g></g></g></g></g><g transform="matrix(1,0,0,1,14,3)"><g clip-path="url(#159cf6490c)"><g style="fill:#000000;fill-opacity:1;"><g transform="translate(0.815069, 16.801447)"><path style="stroke:none" d="M 5.265625 0.296875 C 4.628906 0.296875 4.039062 0.179688 3.5 -0.046875 C 2.96875 -0.285156 2.503906 -0.613281 2.109375 -1.03125 C 1.710938 -1.457031 1.40625 -1.945312 1.1875 -2.5 C 0.976562 -3.0625 0.875 -3.664062 0.875 -4.3125 L 0.875 -4.609375 C 0.875 -5.242188 0.976562 -5.835938 1.1875 -6.390625 C 1.394531 -6.953125 1.691406 -7.441406 2.078125 -7.859375 C 2.460938 -8.285156 2.921875 -8.617188 3.453125 -8.859375 C 3.984375 -9.097656 4.570312 -9.21875 5.21875 -9.21875 C 5.894531 -9.21875 6.507812 -9.078125 7.0625 -8.796875 C 7.625 -8.515625 8.082031 -8.070312 8.4375 -7.46875 C 8.789062 -6.863281 8.988281 -6.082031 9.03125 -5.125 L 8.375 -6.203125 L 8.375 -12.1875 L 9.96875 -12.1875 L 9.96875 0 L 8.703125 0 L 8.703125 -3.953125 L 9.171875 -3.953125 C 9.128906 -2.941406 8.914062 -2.117188 8.53125 -1.484375 C 8.15625 -0.859375 7.679688 -0.40625 7.109375 -0.125 C 6.535156 0.15625 5.921875 0.296875 5.265625 0.296875 Z M 5.484375 -1.109375 C 6.023438 -1.109375 6.519531 -1.226562 6.96875 -1.46875 C 7.414062 -1.71875 7.769531 -2.070312 8.03125 -2.53125 C 8.300781 -2.988281 8.4375 -3.53125 8.4375 -4.15625 L 8.4375 -4.921875 C 8.4375 -5.535156 8.296875 -6.054688 8.015625 -6.484375 C 7.742188 -6.910156 7.382812 -7.238281 6.9375 -7.46875 C 6.488281 -7.695312 6 -7.8125 5.46875 -7.8125 C 4.875 -7.8125 4.347656 -7.671875 3.890625 -7.390625 C 3.441406 -7.117188 3.09375 -6.734375 2.84375 -6.234375 C 2.59375 -5.734375 2.46875 -5.140625 2.46875 -4.453125 C 2.46875 -3.773438 2.59375 -3.179688 2.84375 -2.671875 C 3.101562 -2.171875 3.460938 -1.785156 3.921875 -1.515625 C 4.378906 -1.242188 4.898438 -1.109375 5.484375 -1.109375 Z M 5.484375 -1.109375 "/></g></g></g></g></g></svg>