<svg xmlns="http://www.w3.org/2000/svg" xmlns:xlink="http://www.w3.org/1999/xlink" width="160" zoomAndPan="magnify" viewBox="0 0 120 30.000001" height="40" preserveAspectRatio="xMidYMid meet" version="1.0"><defs><clipPath id="03af8cf1b0"><path d="M 2.503906 6 L 10 6 L 10 24 L 2.503906 24 Z M 2.503906 6 " clip-rule="nonzero"/></clipPath><clipPath id="5275878edb"><path d="M 4 4.738281 L 22 4.738281 L 22 24 L 4 24 Z M 4 4.738281 " clip-rule="nonzero"/></clipPath><clipPath id="0b23955ce7"><path d="M 106 6 L 117.183594 6 L 117.183594 22 L 106 22 Z M 106 6 " clip-rule="nonzero"/></clipPath></defs><g clip-path="url(#03af8cf1b0)"><path fill="#000000" d="M 2.789062 7.617188 L 2.789062 20.441406 C 2.789062 22.023438 4.085938 23.320312 5.671875 23.320312 L 9.179688 23.320312 L 2.878906 6.898438 C 2.820312 7.128906 2.789062 7.371094 2.789062 7.617188 Z M 2.789062 7.617188 " fill-opacity="1" fill-rule="nonzero"/></g><g clip-path="url(#5275878edb)"><path fill="#000000" d="M 18.488281 4.738281 L 5.671875 4.738281 C 5.382812 4.738281 5.101562 4.78125 4.835938 4.863281 L 14.484375 7.15625 C 15.863281 7.480469 15.582031 10.019531 14.203125 10.324219 L 8.535156 11.449219 L 8.53125 11.449219 C 8.289062 11.503906 8.109375 11.695312 8.042969 11.921875 C 8 12.070312 9.117188 19.464844 9.703125 23.320312 L 18.488281 23.320312 C 20.074219 23.320312 21.367188 22.023438 21.367188 20.4375 L 21.367188 7.617188 C 21.367188 6.035156 20.074219 4.738281 18.488281 4.738281 Z M 17.632812 16.089844 L 14 16.964844 C 14 16.964844 13.996094 16.964844 13.992188 16.96875 C 13.839844 17.007812 13.730469 17.132812 13.691406 17.285156 C 13.636719 17.515625 13.828125 23.160156 13.828125 23.160156 L 10.195312 14.125 C 9.964844 13.59375 10.417969 13.023438 10.984375 13.125 L 17.574219 14.402344 C 18.472656 14.578125 18.515625 15.851562 17.628906 16.085938 Z M 17.632812 16.089844 " fill-opacity="1" fill-rule="nonzero"/></g><path fill="#000000" d="M 39.941406 7.507812 C 40.699219 7.886719 41.28125 8.425781 41.695312 9.121094 C 42.109375 9.816406 42.316406 10.625 42.316406 11.550781 C 42.316406 12.472656 42.109375 13.28125 41.695312 13.980469 C 41.285156 14.675781 40.699219 15.210938 39.941406 15.589844 C 39.179688 15.96875 38.308594 16.160156 37.3125 16.160156 L 33.984375 16.160156 L 33.984375 21.40625 L 31.609375 21.40625 L 31.609375 6.9375 L 37.3125 6.9375 C 38.308594 6.9375 39.179688 7.128906 39.941406 7.507812 Z M 37.105469 14.089844 C 37.960938 14.089844 38.640625 13.859375 39.140625 13.398438 C 39.644531 12.9375 39.894531 12.320312 39.894531 11.546875 C 39.894531 10.773438 39.648438 10.144531 39.152344 9.6875 C 38.65625 9.234375 37.980469 9.003906 37.128906 9.003906 L 33.984375 9.003906 L 33.984375 14.089844 Z M 37.105469 14.089844 " fill-opacity="1" fill-rule="nonzero"/><path fill="#000000" d="M 53.207031 21.40625 L 52.03125 21.40625 C 51.339844 21.40625 50.84375 21.261719 50.542969 20.972656 C 50.238281 20.683594 50.085938 20.265625 50.085938 19.710938 C 49.285156 20.925781 48.121094 21.53125 46.59375 21.53125 C 45.40625 21.53125 44.457031 21.257812 43.742188 20.707031 C 43.023438 20.152344 42.664062 19.394531 42.664062 18.433594 C 42.664062 17.34375 43.050781 16.507812 43.824219 15.921875 C 44.59375 15.332031 45.71875 15.042969 47.191406 15.042969 L 49.859375 15.042969 L 49.859375 14.402344 C 49.859375 13.808594 49.652344 13.34375 49.242188 13.007812 C 48.828125 12.667969 48.257812 12.5 47.523438 12.5 C 46.878906 12.5 46.34375 12.640625 45.921875 12.925781 C 45.5 13.207031 45.25 13.582031 45.167969 14.054688 L 42.976562 14.054688 C 43.085938 12.992188 43.554688 12.167969 44.382812 11.582031 C 45.210938 10.996094 46.292969 10.703125 47.628906 10.703125 C 49.046875 10.703125 50.144531 11.035156 50.914062 11.695312 C 51.6875 12.359375 52.074219 13.308594 52.074219 14.546875 L 52.074219 18.722656 C 52.074219 19.21875 52.308594 19.46875 52.777344 19.46875 L 53.210938 19.46875 L 53.210938 21.410156 Z M 47.089844 16.695312 C 46.402344 16.695312 45.871094 16.828125 45.5 17.097656 C 45.128906 17.367188 44.941406 17.761719 44.941406 18.285156 C 44.941406 18.742188 45.117188 19.105469 45.46875 19.382812 C 45.820312 19.65625 46.300781 19.792969 46.90625 19.792969 C 47.828125 19.792969 48.546875 19.542969 49.0625 19.050781 C 49.582031 18.554688 49.84375 17.890625 49.859375 17.0625 L 49.859375 16.691406 L 47.089844 16.691406 Z M 47.089844 16.695312 " fill-opacity="1" fill-rule="nonzero"/><path fill="#000000" d="M 59.101562 21.53125 C 58.054688 21.53125 57.128906 21.308594 56.328125 20.859375 C 55.53125 20.414062 54.914062 19.773438 54.480469 18.949219 C 54.046875 18.121094 53.828125 17.171875 53.828125 16.097656 C 53.828125 15.023438 54.046875 14.078125 54.488281 13.261719 C 54.929688 12.453125 55.554688 11.820312 56.359375 11.371094 C 57.167969 10.925781 58.097656 10.699219 59.164062 10.699219 C 60.484375 10.699219 61.566406 11.046875 62.40625 11.746094 C 63.25 12.441406 63.769531 13.386719 63.980469 14.585938 L 61.683594 14.585938 C 61.535156 13.980469 61.230469 13.496094 60.773438 13.140625 C 60.320312 12.78125 59.761719 12.601562 59.101562 12.601562 C 58.207031 12.601562 57.484375 12.925781 56.941406 13.574219 C 56.394531 14.222656 56.125 15.0625 56.125 16.097656 C 56.125 17.128906 56.394531 17.996094 56.941406 18.648438 C 57.484375 19.304688 58.207031 19.632812 59.101562 19.632812 C 59.789062 19.632812 60.359375 19.449219 60.816406 19.085938 C 61.269531 18.71875 61.566406 18.226562 61.707031 17.605469 L 63.980469 17.605469 C 63.769531 18.835938 63.242188 19.796875 62.386719 20.488281 C 61.535156 21.1875 60.4375 21.535156 59.101562 21.535156 Z M 59.101562 21.53125 " fill-opacity="1" fill-rule="nonzero"/><path fill="#000000" d="M 67.460938 11.375 C 68.242188 10.925781 69.132812 10.703125 70.140625 10.703125 C 71.148438 10.703125 72.058594 10.910156 72.835938 11.320312 C 73.617188 11.734375 74.230469 12.320312 74.679688 13.078125 C 75.125 13.835938 75.355469 14.726562 75.371094 15.746094 C 75.371094 16.023438 75.347656 16.304688 75.308594 16.59375 L 67.328125 16.59375 L 67.328125 16.71875 C 67.386719 17.640625 67.671875 18.371094 68.199219 18.910156 C 68.722656 19.445312 69.417969 19.714844 70.285156 19.714844 C 70.972656 19.714844 71.554688 19.554688 72.019531 19.230469 C 72.488281 18.90625 72.800781 18.449219 72.953125 17.855469 L 75.183594 17.855469 C 74.992188 18.929688 74.472656 19.8125 73.625 20.503906 C 72.777344 21.191406 71.71875 21.535156 70.449219 21.535156 C 69.347656 21.535156 68.386719 21.3125 67.566406 20.863281 C 66.746094 20.417969 66.113281 19.789062 65.664062 18.972656 C 65.21875 18.160156 64.996094 17.214844 64.996094 16.140625 C 64.996094 15.070312 65.210938 14.097656 65.644531 13.28125 C 66.078125 12.460938 66.683594 11.824219 67.464844 11.378906 Z M 72.175781 13.148438 C 71.660156 12.714844 71.007812 12.5 70.21875 12.5 C 69.492188 12.5 68.859375 12.722656 68.328125 13.171875 C 67.796875 13.617188 67.492188 14.214844 67.410156 14.957031 L 73.09375 14.957031 C 72.996094 14.1875 72.691406 13.585938 72.171875 13.148438 Z M 72.175781 13.148438 " fill-opacity="1" fill-rule="nonzero"/><path fill="#000000" d="M 86.984375 13.234375 C 87.414062 14.054688 87.625 15.011719 87.625 16.113281 C 87.625 17.21875 87.414062 18.136719 86.984375 18.957031 C 86.558594 19.777344 85.964844 20.410156 85.207031 20.859375 C 84.449219 21.304688 83.589844 21.53125 82.625 21.53125 C 81.839844 21.53125 81.15625 21.386719 80.578125 21.09375 C 80 20.804688 79.539062 20.414062 79.195312 19.914062 L 79.195312 24.726562 L 76.960938 24.726562 L 76.960938 10.824219 L 78.90625 10.824219 L 79.175781 12.394531 C 80.027344 11.265625 81.179688 10.699219 82.628906 10.699219 C 83.589844 10.699219 84.453125 10.917969 85.210938 11.351562 C 85.96875 11.785156 86.5625 12.410156 86.988281 13.234375 Z M 85.351562 16.117188 C 85.351562 15.070312 85.066406 14.222656 84.496094 13.574219 C 83.921875 12.925781 83.175781 12.601562 82.253906 12.601562 C 81.332031 12.601562 80.585938 12.921875 80.019531 13.5625 C 79.453125 14.203125 79.171875 15.042969 79.171875 16.074219 C 79.171875 17.109375 79.453125 18 80.019531 18.660156 C 80.585938 19.320312 81.332031 19.652344 82.253906 19.652344 C 83.175781 19.652344 83.921875 19.320312 84.496094 18.660156 C 85.066406 18 85.351562 17.152344 85.351562 16.117188 Z M 85.351562 16.117188 " fill-opacity="1" fill-rule="nonzero"/><path fill="#000000" d="M 99.34375 21.40625 L 98.164062 21.40625 C 97.476562 21.40625 96.980469 21.261719 96.679688 20.972656 C 96.375 20.683594 96.222656 20.265625 96.222656 19.710938 C 95.425781 20.925781 94.257812 21.53125 92.730469 21.53125 C 91.542969 21.53125 90.59375 21.257812 89.878906 20.707031 C 89.160156 20.152344 88.804688 19.394531 88.804688 18.433594 C 88.804688 17.34375 89.1875 16.507812 89.960938 15.921875 C 90.730469 15.332031 91.855469 15.042969 93.332031 15.042969 L 96 15.042969 L 96 14.402344 C 96 13.808594 95.789062 13.34375 95.378906 13.007812 C 94.964844 12.667969 94.394531 12.5 93.664062 12.5 C 93.015625 12.5 92.480469 12.640625 92.0625 12.925781 C 91.640625 13.207031 91.390625 13.582031 91.304688 14.054688 L 89.117188 14.054688 C 89.226562 12.992188 89.695312 12.167969 90.519531 11.582031 C 91.347656 10.996094 92.429688 10.703125 93.765625 10.703125 C 95.1875 10.703125 96.28125 11.035156 97.054688 11.695312 C 97.824219 12.359375 98.210938 13.308594 98.210938 14.546875 L 98.210938 18.722656 C 98.210938 19.21875 98.445312 19.46875 98.914062 19.46875 L 99.347656 19.46875 L 99.347656 21.410156 Z M 93.226562 16.695312 C 92.539062 16.695312 92.007812 16.828125 91.636719 17.097656 C 91.261719 17.367188 91.078125 17.761719 91.078125 18.285156 C 91.078125 18.742188 91.253906 19.105469 91.605469 19.382812 C 91.957031 19.65625 92.4375 19.792969 93.039062 19.792969 C 93.964844 19.792969 94.683594 19.542969 95.199219 19.050781 C 95.714844 18.554688 95.980469 17.890625 95.996094 17.0625 L 95.996094 16.691406 L 93.226562 16.691406 Z M 93.226562 16.695312 " fill-opacity="1" fill-rule="nonzero"/><path fill="#000000" d="M 106.207031 12.914062 L 105.214844 12.914062 C 104.292969 12.914062 103.625 13.214844 103.210938 13.8125 C 102.796875 14.410156 102.589844 15.175781 102.589844 16.097656 L 102.589844 21.40625 L 100.359375 21.40625 L 100.359375 10.824219 L 102.34375 10.824219 L 102.59375 12.417969 C 102.894531 11.921875 103.289062 11.53125 103.769531 11.246094 C 104.253906 10.964844 104.902344 10.824219 105.714844 10.824219 L 106.210938 10.824219 L 106.210938 12.910156 Z M 106.207031 12.914062 " fill-opacity="1" fill-rule="nonzero"/><g clip-path="url(#0b23955ce7)"><path fill="#000000" d="M 117.203125 21.40625 L 115.261719 21.40625 L 114.992188 19.816406 C 114.148438 20.960938 113 21.53125 111.539062 21.53125 C 110.574219 21.53125 109.710938 21.316406 108.953125 20.882812 C 108.195312 20.445312 107.601562 19.820312 107.175781 19 C 106.75 18.179688 106.535156 17.21875 106.535156 16.117188 C 106.535156 15.015625 106.753906 14.09375 107.1875 13.277344 C 107.621094 12.457031 108.214844 11.820312 108.976562 11.375 C 109.734375 10.925781 110.585938 10.703125 111.539062 10.703125 C 112.308594 10.703125 112.984375 10.84375 113.5625 11.125 C 114.140625 11.40625 114.609375 11.796875 114.96875 12.292969 L 114.96875 6.9375 L 117.199219 6.9375 L 117.199219 21.40625 Z M 114.992188 16.160156 C 114.992188 15.097656 114.710938 14.238281 114.144531 13.585938 C 113.578125 12.929688 112.835938 12.601562 111.914062 12.601562 C 110.992188 12.601562 110.246094 12.929688 109.679688 13.585938 C 109.117188 14.238281 108.832031 15.082031 108.832031 16.117188 C 108.832031 17.152344 109.117188 18.015625 109.679688 18.671875 C 110.246094 19.324219 110.992188 19.652344 111.914062 19.652344 C 112.835938 19.652344 113.582031 19.328125 114.144531 18.679688 C 114.710938 18.035156 114.992188 17.191406 114.992188 16.160156 Z M 114.992188 16.160156 " fill-opacity="1" fill-rule="nonzero"/></g></svg>