<svg width="300" height="71" viewBox="0 0 300 71" fill="none" xmlns="http://www.w3.org/2000/svg">
<g clip-path="url(#clip0_2695_11713)">
<path d="M108.454 31.0325C108.053 29.8027 107.409 28.6688 106.56 27.7C105.694 26.7395 104.629 25.985 103.441 25.4909C102.098 24.9416 100.659 24.6715 99.2104 24.6967C97.7876 24.6786 96.3776 24.9721 95.0772 25.5571C92.608 26.6605 90.6705 28.7087 89.6881 31.2543C89.1739 32.5631 88.9136 33.96 88.9215 35.3685C88.9039 36.8283 89.1704 38.2774 89.7057 39.6329C90.2059 40.896 90.9534 42.0434 91.9033 43.0059C92.8532 43.9685 93.9857 44.7263 95.2326 45.2336C96.5605 45.772 97.9797 46.0419 99.41 46.0278C101.642 46.0278 103.532 45.5245 105.08 44.5181C106.614 43.5229 107.882 42.1602 108.772 40.5506L104.372 38.345C103.921 39.1858 103.28 39.9062 102.501 40.4468C101.705 41.0049 100.704 41.2851 99.4984 41.2875C98.882 41.2866 98.269 41.1944 97.679 41.0139C97.0856 40.8381 96.5314 40.5477 96.0469 40.1588C95.5384 39.7545 95.1125 39.2539 94.7928 38.6849C94.4339 38.0364 94.2069 37.3218 94.1251 36.5831H109.01C109.01 36.4325 109.023 36.2823 109.049 36.1341C109.049 35.9835 109.063 35.8332 109.09 35.6851V35.2021C109.106 33.7857 108.891 32.3762 108.454 31.0307V31.0325ZM94.413 32.7873C94.7088 31.699 95.3461 30.7378 96.2288 30.0487C97.0872 29.3964 98.1356 29.0521 99.2087 29.0702C99.9189 29.0524 100.626 29.1776 101.288 29.4387C101.825 29.6585 102.318 29.9769 102.741 30.3778C103.106 30.7293 103.405 31.1443 103.625 31.6031C103.806 31.9748 103.921 32.3765 103.964 32.7891H94.4077L94.413 32.7873Z" fill="white"/>
<path d="M171.823 31.0719C171.331 29.8091 170.589 28.6612 169.644 27.6983C168.697 26.7471 167.573 25.9967 166.337 25.4909C163.623 24.4301 160.615 24.4301 157.901 25.4909C156.659 25.9927 155.532 26.7467 154.588 27.7065C153.645 28.6664 152.906 29.8117 152.416 31.0719C151.371 33.8359 151.371 36.8939 152.416 39.658C152.907 40.9173 153.647 42.0618 154.59 43.0212C155.533 43.9806 156.66 44.7347 157.901 45.2372C160.615 46.2997 163.623 46.2997 166.337 45.2372C167.574 44.7314 168.698 43.9803 169.644 43.028C170.588 42.0661 171.33 40.9195 171.823 39.658C172.88 36.8959 172.88 33.8339 171.823 31.0719ZM166.904 37.7726C166.645 38.4417 166.255 39.0504 165.756 39.5614C165.279 40.0465 164.71 40.4287 164.083 40.6847C162.822 41.2046 161.41 41.2046 160.149 40.6847C159.529 40.4255 158.967 40.0436 158.494 39.5614C157.995 39.0505 157.604 38.4418 157.345 37.7726C156.779 36.2136 156.779 34.5019 157.345 32.9429C157.605 32.2743 157.996 31.6658 158.494 31.1542C158.969 30.6686 159.535 30.2847 160.159 30.0253C160.783 29.7659 161.452 29.6364 162.126 29.6444C162.797 29.6441 163.461 29.7753 164.083 30.0308C164.71 30.2882 165.279 30.6709 165.756 31.156C166.253 31.668 166.644 32.2764 166.904 32.9447C167.474 34.5028 167.474 36.2163 166.904 37.7744V37.7726Z" fill="white"/>
<path d="M225.916 45.1262C225.279 45.4325 224.607 45.6583 223.916 45.7988C223.142 45.9566 222.355 46.0327 221.565 46.0259C220.649 46.0396 219.738 45.8782 218.88 45.5501C218.132 45.2581 217.452 44.8102 216.884 44.2354C215.62 42.9832 214.987 41.2034 214.987 38.8959V29.2777H211.52V24.7002H214.989V20.8257L220.267 19.2158V24.6948H225.109V29.2723H220.267V37.9228C220.264 38.3692 220.311 38.8146 220.408 39.2501C220.492 39.6389 220.681 39.9965 220.954 40.2822C221.33 40.7306 221.868 40.9548 222.569 40.9548C223.232 40.993 223.888 40.804 224.432 40.4181L225.916 45.1298V45.1262Z" fill="white"/>
<path d="M245.169 31.0326C244.768 29.8028 244.124 28.6688 243.275 27.7001C242.412 26.7418 241.351 25.9882 240.167 25.4927C238.821 24.9423 237.379 24.6722 235.927 24.6985C234.503 24.6804 233.092 24.9739 231.791 25.5589C229.324 26.6656 227.388 28.7128 226.403 31.2562C225.891 32.5653 225.631 33.962 225.639 35.3703C225.621 36.8302 225.887 38.2792 226.423 39.6348C226.924 40.8973 227.673 42.0441 228.623 43.0065C229.573 43.969 230.705 44.7271 231.951 45.2354C233.279 45.7739 234.698 46.0437 236.129 46.0296C238.36 46.0296 240.25 45.5264 241.797 44.5199C243.332 43.5248 244.601 42.1622 245.492 40.5524L241.092 38.3469C240.638 39.1876 239.994 39.9078 239.213 40.4487C238.42 41.0068 237.419 41.287 236.21 41.2894C235.595 41.288 234.983 41.1958 234.394 41.0157C233.8 40.84 233.244 40.5497 232.759 40.1607C232.251 39.755 231.826 39.2547 231.505 38.6867C231.146 38.0385 230.92 37.3236 230.84 36.5849H245.725C245.723 36.4343 245.736 36.2839 245.764 36.1359C245.765 35.9854 245.778 35.8353 245.803 35.687V35.2022C245.819 33.7872 245.603 32.3794 245.164 31.0362L245.169 31.0326ZM231.128 32.7874C231.423 31.699 232.06 30.7375 232.942 30.0488C233.803 29.3953 234.854 29.051 235.929 29.0703C236.639 29.0523 237.345 29.1776 238.006 29.4388C238.543 29.6586 239.036 29.977 239.458 30.3779C239.823 30.7293 240.122 31.1443 240.342 31.6032C240.527 31.9737 240.643 32.3758 240.684 32.7891H231.125L231.128 32.7874Z" fill="white"/>
<path d="M298.267 27.4211C297.061 25.9901 295.264 25.1619 293.032 24.8238C290.596 24.466 287.717 25.2245 285.353 27.083C284.647 27.6357 283.656 28.514 283.04 29.3565V29.3404L283.824 24.8971L284.852 19.0264H282.095L277.793 43.6095L277.481 45.4197L277.364 46.0726H280.095L280.922 41.3806C281.191 42.0674 281.56 42.709 282.019 43.2839C283.508 45.146 285.793 46.0422 288.259 46.01C289.884 46.0028 291.488 45.6374 292.959 44.9393C294.431 44.2412 295.734 43.2271 296.78 41.9674C298.723 39.6384 299.852 36.7241 299.989 33.6782C300.09 30.8949 299.474 28.8485 298.267 27.4175V27.4211ZM297.218 34.0306C297.108 36.4051 296.227 38.6765 294.712 40.4916C293.897 41.4759 292.88 42.2681 291.732 42.8128C290.583 43.3576 289.331 43.6416 288.063 43.6452C286.141 43.6739 284.354 42.9727 283.195 41.5184C282.342 40.4451 281.828 38.9676 281.847 37.0751C281.86 36.3395 281.939 35.6066 282.084 34.8856C282.181 34.3759 282.319 33.8751 282.497 33.3884C282.856 32.4114 283.357 31.4939 283.983 30.6659C284.516 29.9983 285.126 29.3978 285.8 28.8771C287.641 27.4229 289.891 26.8272 291.788 27.1152C293.53 27.3781 294.922 28.0221 295.874 29.1401C296.826 30.2581 297.305 31.8501 297.218 34.0306Z" fill="white"/>
<path d="M258.413 18.9656L254.181 43.1766L254.001 44.2195L253.796 45.3714L253.683 46.0261H250.846L253.422 31.3671L253.831 29.0274L253.911 28.5784L255.591 18.9656H258.413Z" fill="white"/>
<path d="M208.606 26.8827C206.991 25.4266 204.651 24.698 201.584 24.6968C197.955 24.6968 195.09 26.0312 192.989 28.7L196.831 31.3582C198.096 29.8079 199.642 29.0328 201.47 29.0328C202.706 29.0328 203.745 29.3762 204.578 30.0756C204.975 30.3858 205.295 30.7854 205.513 31.2428C205.731 31.7002 205.84 32.2028 205.833 32.7105V33.324C205.162 33.0634 204.475 32.8512 203.775 32.689C202.727 32.4643 201.657 32.3628 200.586 32.3867C199.499 32.3774 198.416 32.5354 197.375 32.8554C196.443 33.1412 195.574 33.6065 194.816 34.2256C194.103 34.8083 193.524 35.5407 193.118 36.3721C192.708 37.2459 192.501 38.2038 192.514 39.1715C192.504 40.1277 192.696 41.0749 193.078 41.9495C193.443 42.7757 193.98 43.5126 194.652 44.1103C195.345 44.724 196.145 45.2031 197.01 45.5234C197.934 45.8686 198.912 46.0425 199.898 46.0368C201.268 46.0368 202.391 45.7649 203.264 45.2211C204.113 44.695 204.87 44.0302 205.504 43.2535H205.829V46.044H211.034V33.3616C211.034 30.4996 210.227 28.3405 208.613 26.8844L208.606 26.8827ZM205.472 38.9783C205.252 39.5277 204.924 40.0265 204.51 40.4451C203.589 41.357 202.35 41.8641 201.062 41.8565C200.242 41.8691 199.441 41.611 198.78 41.1213C198.466 40.903 198.21 40.6086 198.038 40.2649C197.865 39.9212 197.78 39.5392 197.79 39.1536C197.789 38.752 197.882 38.3558 198.061 37.9974C198.24 37.639 198.5 37.3285 198.82 37.0912C199.508 36.5343 200.483 36.2558 201.747 36.2558C202.474 36.251 203.199 36.3394 203.904 36.5188C204.564 36.6968 205.207 36.9363 205.824 37.2343C205.822 37.8314 205.702 38.4221 205.47 38.9712L205.472 38.9783Z" fill="white"/>
<path d="M193.908 24.6985L193.634 25.3514L193.468 25.7449L185.12 45.3713H185.117L184.832 46.0528H180.203L179.915 45.3713L179.797 45.0905L171.68 25.8129L171.486 25.3514H171.482L171.212 24.6985H177.221L177.493 25.3514L182.418 38.1H182.699L187.662 25.3514L187.934 24.6985H193.908Z" fill="white"/>
<path d="M150.417 33.2345V46.0529H145.134V33.8892C145.134 32.4582 144.821 31.385 144.184 30.6802C143.546 29.9754 142.631 29.6409 141.417 29.6409C140.749 29.6307 140.089 29.7945 139.501 30.1167C138.946 30.4335 138.464 30.8665 138.088 31.3867C137.682 31.9525 137.383 32.5892 137.205 33.265C136.995 34.0181 136.89 34.7971 136.892 35.5796V45.3821H136.88V46.0636H131.616V24.6985H136.579V27.9648H136.892C137.51 26.9622 138.373 26.1383 139.398 25.5732C140.502 24.9749 141.739 24.6725 142.991 24.6949C144.109 24.6729 145.219 24.8816 146.254 25.3085C147.154 25.6878 147.949 26.2833 148.571 27.0436C149.2 27.8427 149.667 28.7593 149.945 29.7411C150.268 30.8765 150.427 32.0531 150.417 33.2345Z" fill="white"/>
<path d="M129.272 33.2345V46.0529H123.987V33.8892C123.987 32.4582 123.674 31.3849 123.047 30.6801C122.42 29.9754 121.491 29.6409 120.281 29.6409C119.613 29.6304 118.953 29.7943 118.365 30.1167C117.81 30.4335 117.328 30.8664 116.952 31.3867C116.548 31.9538 116.249 32.5901 116.069 33.2649C115.862 34.018 115.761 34.7964 115.767 35.5778V44.8794H115.779V46.069H110.469V24.6949H115.433V27.963H115.758C116.374 26.9592 117.238 26.135 118.264 25.5714C119.367 24.9725 120.604 24.6701 121.855 24.6931C122.974 24.6701 124.086 24.8788 125.123 25.3067C126.025 25.6839 126.822 26.2797 127.444 27.0418C128.073 27.8399 128.539 28.7569 128.815 29.7393C129.134 30.8755 129.288 32.0531 129.27 33.2345H129.272Z" fill="white"/>
<path d="M274.817 26.7163C273.607 25.3639 271.745 24.6484 269.507 24.6484C264.505 24.6484 261.264 27.7394 259.904 31.9484H262.446C263.505 28.6678 265.941 26.8057 269.027 26.8057C272.113 26.8057 273.74 28.5176 273.74 31.689C273.723 32.2734 273.673 32.8563 273.591 33.4349H266.93C261.808 33.4349 257.95 36.1896 257.95 40.5113C257.95 43.7937 260.232 45.7685 263.73 45.7685C267.522 45.7685 270.686 43.8008 272.229 41.2608L271.556 45.2479L271.532 45.3928L271.422 46.0135H274.003L274.109 45.3928L276.17 33.5046C276.309 32.7934 276.384 32.0707 276.393 31.3456C276.393 29.378 275.822 27.8289 274.819 26.7127L274.817 26.7163ZM264.687 43.5092C262.181 43.5092 260.603 42.207 260.603 40.0462C260.603 37.4382 262.813 35.3846 266.6 35.3846H273.264L273.107 36.2057C272.775 38.2311 271.749 40.0734 270.209 41.4093C268.669 42.7451 266.714 43.4892 264.687 43.511V43.5092Z" fill="white"/>
<path d="M34.2248 30.3136H24.4905C24.864 29.4542 25.4529 28.7087 26.1987 28.1511C26.9446 27.5934 27.8215 27.2429 28.7424 27.1345C29.6633 27.026 30.5962 27.1632 31.4485 27.5326C32.3009 27.902 33.043 28.4907 33.6013 29.2403C33.8503 29.5719 34.0596 29.9321 34.2248 30.3136Z" fill="#FFD30B"/>
<path d="M34.5586 0.5C15.4715 0.5 2.21749e-05 16.1661 2.21749e-05 35.5009C-0.00570701 40.6175 1.09879 45.6728 3.23538 50.3093C5.37198 54.9459 8.48848 59.0504 12.3645 62.3325C13.0474 62.912 13.754 63.4654 14.4841 63.9925C20.3439 68.2249 27.3619 70.4998 34.5595 70.4998C41.757 70.4998 48.7751 68.2249 54.6349 63.9925C55.0353 63.7027 55.4292 63.4045 55.8166 63.0981C59.9636 59.8283 63.318 55.6422 65.6237 50.8593C67.9295 46.0765 69.1256 40.8233 69.1207 35.5009C69.119 16.1696 53.6458 0.5 34.5586 0.5ZM51.7151 37.8853L33.5606 63.107L39.0363 46.2067H32.6209L32.7234 45.8901L33.0908 44.7578L34.1223 41.5702L35.327 37.8728L35.6802 36.7995L36.4733 34.3078L40.036 23.3033L41.0058 20.3106L41.1365 19.9082C41.2845 19.5866 41.5204 19.3146 41.8162 19.1244C42.1119 18.9342 42.4553 18.8338 42.8057 18.8349H53.2413L46.8171 35.7674L46.0151 37.8853H51.7151ZM28.9681 37.8853C29.0511 37.8853 29.1324 37.8979 29.2154 37.8979H32.8541L32.4143 39.2519L30.2046 46.026L30.1745 46.1244C29.9025 46.1423 29.6287 46.1512 29.3532 46.1512C28.9416 46.1512 28.5354 46.1316 28.1344 46.0958C24.8656 45.7951 21.8171 44.2979 19.5599 41.8847C17.3028 39.4714 15.9917 36.3076 15.8724 32.9859C15.8724 32.8285 15.8724 32.6585 15.8724 32.494C15.8724 32.2596 15.8724 32.0289 15.8918 31.7963C16.0662 28.3293 17.5378 25.0596 20.0074 22.652C22.4771 20.2444 25.7594 18.8795 29.1871 18.8349H29.3638C32.5225 18.8332 35.5813 19.9565 38.0047 22.0082L35.3093 30.3224L34.6823 32.2686L34.0163 34.331H24.3509C24.6992 35.3119 25.3206 36.1695 26.14 36.8003C26.9594 37.431 27.9417 37.8079 28.9681 37.8853Z" fill="#FFD30B"/>
</g>
<defs>
<clipPath id="clip0_2695_11713">
<rect width="300" height="70" fill="white" transform="translate(0 0.5)"/>
</clipPath>
</defs>
</svg>
