<svg width="193" height="45" viewBox="0 0 193 45" fill="none" xmlns="http://www.w3.org/2000/svg">
<g clip-path="url(#clip0_32_6799)">
<path d="M69.7091 19.7399C69.4529 18.9619 69.0402 18.2447 68.4965 17.6323C67.942 17.0248 67.26 16.5477 66.4995 16.2352C65.6396 15.8875 64.7186 15.7169 63.7914 15.7333C62.8805 15.7217 61.9779 15.9073 61.1454 16.2773C59.5647 16.9752 58.3245 18.271 57.6961 19.8815C57.367 20.7083 57.2004 21.5909 57.2056 22.4809C57.1943 23.4044 57.3648 24.3211 57.7071 25.1788C58.0274 25.9776 58.5059 26.7033 59.1139 27.3121C59.7219 27.921 60.4467 28.4005 61.2447 28.7217C62.0946 29.0625 63.0032 29.233 63.9187 29.2235C65.347 29.2235 66.557 28.905 67.5486 28.268C68.5304 27.6386 69.342 26.7768 69.9117 25.7589L67.0953 24.3638C66.8067 24.8956 66.3963 25.3513 65.8977 25.6936C65.3875 26.0469 64.7452 26.2242 63.9709 26.2256C63.5772 26.2257 63.1855 26.1682 62.8084 26.055C62.4285 25.9436 62.0736 25.7599 61.7633 25.514C61.438 25.2581 61.1654 24.9415 60.9609 24.5816C60.731 24.1713 60.5857 23.7191 60.5336 23.2517H70.0622C70.0613 23.1565 70.0697 23.0613 70.0872 22.9677C70.0877 22.8725 70.0964 22.7774 70.1133 22.6837V22.3735C70.1249 21.4794 69.9883 20.5894 69.7091 19.7399ZM60.7211 20.85C60.9451 20.11 61.3326 19.5325 61.8836 19.1177C62.4333 18.7052 63.1044 18.4873 63.7914 18.4984C64.246 18.4875 64.6984 18.5666 65.1223 18.7313C65.4666 18.8702 65.7821 19.0716 66.0531 19.3254C66.2876 19.5475 66.4803 19.8099 66.6218 20.1003C66.7385 20.3351 66.8119 20.5891 66.8385 20.85H60.7211Z" fill="#141414"/>
<path d="M110.27 19.765C109.954 18.9663 109.48 18.2403 108.875 17.6313C108.269 17.0295 107.549 16.5549 106.758 16.2352C105.02 15.5647 103.096 15.5647 101.358 16.2352C100.563 16.5526 99.8415 17.0296 99.2377 17.6366C98.634 18.2437 98.1608 18.968 97.8474 19.765C97.1788 21.5121 97.1788 23.4448 97.8474 25.1918C98.1615 25.9883 98.6348 26.7122 99.2385 27.319C99.8422 27.9258 100.563 28.4028 101.358 28.7207C103.095 29.3925 105.021 29.3925 106.758 28.7207C107.55 28.401 108.269 27.9259 108.875 27.3236C109.48 26.7153 109.954 25.9899 110.27 25.1918C110.945 23.446 110.945 21.5108 110.27 19.765ZM107.121 24.0035C106.956 24.4287 106.706 24.8157 106.386 25.1406C106.081 25.4477 105.716 25.6894 105.315 25.8512C104.917 26.0143 104.492 26.0982 104.062 26.0981C103.628 26.1008 103.198 26.0169 102.796 25.8512C102.4 25.6872 102.039 25.4456 101.737 25.1406C101.417 24.8157 101.166 24.4288 101.001 24.0035C100.64 23.0189 100.64 21.938 101.001 20.9534C101.167 20.5285 101.417 20.1416 101.737 19.8162C102.041 19.509 102.403 19.2662 102.803 19.102C103.202 18.9379 103.63 18.8558 104.062 18.8607C104.492 18.8601 104.917 18.9429 105.315 19.1046C105.716 19.2679 106.08 19.5099 106.386 19.8162C106.705 20.1417 106.955 20.5285 107.121 20.9534C107.485 21.9375 107.485 23.0194 107.121 24.0035Z" fill="#141414"/>
<path d="M144.898 28.6554C144.49 28.8491 144.06 28.992 143.618 29.081C143.122 29.1806 142.618 29.2287 142.113 29.2245C141.526 29.2331 140.943 29.1309 140.394 28.9234C139.914 28.7389 139.479 28.4554 139.116 28.0914C138.306 27.2998 137.902 26.1741 137.902 24.7141V18.6299H135.681V15.7343H137.902V13.2834L141.28 12.2687H141.286V15.7343H144.385V18.6299H141.286V24.1018C141.284 24.3841 141.314 24.6656 141.376 24.9409C141.429 25.1866 141.55 25.4125 141.725 25.5933C141.966 25.8776 142.31 26.0195 142.758 26.0188C142.996 26.0273 143.233 25.9968 143.46 25.9285C143.633 25.8677 143.798 25.7854 143.951 25.6836L144.898 28.6554Z" fill="#04000D"/>
<path d="M157.218 19.7399C156.961 18.9619 156.549 18.2447 156.005 17.6323C155.452 17.026 154.773 16.5493 154.015 16.2362C153.155 15.8885 152.234 15.7179 151.307 15.7343C150.395 15.723 149.492 15.9086 148.659 16.2783C147.08 16.9783 145.841 18.2735 145.211 19.8825C144.882 20.7095 144.716 21.592 144.721 22.4819C144.71 23.4054 144.88 24.3221 145.223 25.1798C145.544 25.9784 146.023 26.7039 146.631 27.3127C147.239 27.9215 147.964 28.4011 148.762 28.7227C149.612 29.0637 150.521 29.2342 151.436 29.2245C152.865 29.2245 154.074 28.906 155.064 28.269C156.047 27.64 156.859 26.7781 157.429 25.7599L154.613 24.3648C154.322 24.8966 153.909 25.3523 153.409 25.6946C152.902 26.0479 152.261 26.2252 151.486 26.2266C151.092 26.2269 150.7 26.1694 150.323 26.056C149.942 25.9447 149.587 25.761 149.276 25.515C148.951 25.2586 148.679 24.942 148.473 24.5826C148.243 24.1726 148.099 23.7202 148.048 23.2527H157.577C157.575 23.1575 157.584 23.0623 157.602 22.9687C157.602 22.8735 157.611 22.7785 157.627 22.6847V22.3745C157.637 21.4797 157.499 20.5895 157.218 19.7399ZM148.23 20.85C148.418 20.1614 148.826 19.5532 149.391 19.1177C149.942 18.7047 150.615 18.4868 151.303 18.4984C151.757 18.4874 152.209 18.5665 152.633 18.7313C152.977 18.8699 153.292 19.0714 153.563 19.3254C153.797 19.5475 153.989 19.8099 154.13 20.1003C154.249 20.3346 154.323 20.5887 154.35 20.85H148.23Z" fill="#141414"/>
<path d="M191.21 17.4566C190.438 16.5473 189.292 16.0274 187.859 15.8136C186.301 15.5818 184.457 16.0666 182.945 17.2428C182.497 17.5921 181.858 18.1532 181.463 18.6811V18.671L181.965 15.8608L182.623 12.1473H180.857L178.104 27.701L177.904 28.8461L177.829 29.2596H179.578L180.107 26.2918C180.28 26.7262 180.516 27.1322 180.809 27.4962C181.762 28.6735 183.226 29.2406 184.804 29.2205C185.844 29.2159 186.871 28.9848 187.813 28.5432C188.755 28.1016 189.589 27.46 190.259 26.6632C191.503 25.19 192.225 23.3466 192.313 21.4201C192.377 19.6596 191.983 18.3669 191.21 17.4566ZM190.538 21.6369C190.468 23.1389 189.904 24.5755 188.934 25.7237C188.412 26.3462 187.761 26.8472 187.026 27.1916C186.291 27.5361 185.49 27.7157 184.678 27.718C183.447 27.7361 182.305 27.2925 181.562 26.3731C181.015 25.6966 180.686 24.7602 180.699 23.5629C180.707 23.0975 180.758 22.6339 180.85 22.1778C180.912 21.8552 181.001 21.5383 181.115 21.2304C181.345 20.6122 181.665 20.0318 182.066 19.5081C182.407 19.0859 182.798 18.7062 183.23 18.377C184.408 17.4566 185.848 17.0802 187.063 17.2629C188.178 17.4295 189.069 17.836 189.678 18.5436C190.287 19.2512 190.594 20.2578 190.538 21.6369Z" fill="#141414"/>
<path d="M165.699 12.1081L162.99 27.4219L162.875 28.0813L162.743 28.81L162.671 29.2245H160.855L162.503 19.9517L162.766 18.4723L162.817 18.1883L163.892 12.1081H165.699Z" fill="#04000D"/>
<path d="M133.815 17.1154C132.782 16.194 131.284 15.733 129.321 15.7323C126.997 15.7323 125.163 16.5764 123.819 18.2646L126.279 19.9457C127.088 18.9634 128.077 18.4723 129.248 18.4723C130.042 18.4723 130.704 18.6901 131.238 19.1317C131.492 19.328 131.696 19.5809 131.836 19.8703C131.975 20.1597 132.045 20.4776 132.04 20.7988V21.1872C131.611 21.0225 131.171 20.8883 130.723 20.7858C130.052 20.6436 129.367 20.5793 128.682 20.5941C127.986 20.5879 127.293 20.6877 126.627 20.8901C126.03 21.0709 125.474 21.365 124.988 21.7563C124.532 22.1245 124.162 22.5871 123.902 23.1122C123.639 23.6649 123.507 24.2707 123.515 24.8827C123.509 25.4876 123.632 26.0869 123.877 26.6401C124.108 27.164 124.45 27.6317 124.88 28.0111C125.324 28.399 125.835 28.7021 126.389 28.9053C126.981 29.1239 127.607 29.2337 128.238 29.2295C129.116 29.2295 129.834 29.0576 130.393 28.7136C130.936 28.3822 131.421 27.9626 131.826 27.4721H132.034V29.2376H135.366V21.2123C135.366 19.403 134.849 18.0374 133.815 17.1154ZM131.809 24.7663C131.668 25.1135 131.459 25.4288 131.193 25.6936C130.604 26.2705 129.811 26.5912 128.987 26.5859C128.462 26.5943 127.95 26.4311 127.526 26.1212C127.326 25.9834 127.163 25.7977 127.052 25.5809C126.942 25.364 126.887 25.123 126.894 24.8797C126.894 24.3638 127.113 23.9272 127.553 23.5749C127.992 23.2226 128.617 23.047 129.426 23.047C129.891 23.0437 130.355 23.0997 130.806 23.2136C131.229 23.3265 131.64 23.4784 132.035 23.6673C132.035 24.0448 131.959 24.4185 131.812 24.7663H131.809Z" fill="#04000D"/>
<path d="M124.407 15.7343L124.232 16.1468L124.125 16.3958L118.782 28.81H118.78L118.598 29.2416H115.635L115.45 28.81L115.374 28.6323L110.178 16.4389L110.054 16.1468H110.052L109.879 15.7343H113.726L113.9 16.1468L117.052 24.2112H117.232L120.409 16.1468L120.584 15.7343H124.407Z" fill="#04000D"/>
<path d="M96.5676 21.134V29.2416H93.1854V21.5475C93.1854 20.6362 92.9848 19.9577 92.5776 19.5181C92.1704 19.0785 91.5836 18.8607 90.8073 18.8607C90.3794 18.854 89.9569 18.9577 89.5806 19.1618C89.2264 19.3626 88.9187 19.6363 88.6779 19.9648C88.4177 20.3227 88.2256 20.7255 88.1112 21.1531C87.977 21.6292 87.9095 22.1217 87.9106 22.6164V28.817H87.9026V29.2486H84.5315V15.7343H87.709V17.7999H87.9096C88.305 17.1654 88.8579 16.6443 89.5144 16.2874C90.2211 15.9088 91.0129 15.7177 91.8143 15.7323C92.5312 15.7182 93.2435 15.8503 93.9076 16.1208C94.4839 16.3603 94.993 16.7369 95.3911 17.2178C95.7936 17.7231 96.0925 18.3029 96.2707 18.924C96.4756 19.6425 96.5756 20.3869 96.5676 21.134Z" fill="#04000D"/>
<path d="M83.0321 21.134V29.2416H79.6489V21.5475C79.6489 20.6362 79.4483 19.9577 79.0471 19.5181C78.6459 19.0785 78.0511 18.8607 77.2768 18.8607C76.8488 18.8538 76.4263 18.9575 76.0501 19.1618C75.6959 19.3626 75.3882 19.6363 75.1474 19.9648C74.8873 20.323 74.6946 20.7257 74.5787 21.1531C74.4469 21.6296 74.3818 22.122 74.3851 22.6164V28.4959H74.3932V29.2486H70.996V15.7323H74.1735V17.7999H74.3811C74.7761 17.1651 75.3291 16.6439 75.9859 16.2874C76.6921 15.9085 77.4837 15.7174 78.2848 15.7323C79.0014 15.7178 79.7134 15.85 80.3771 16.1207C80.9546 16.3591 81.4647 16.7358 81.8626 17.2177C82.2652 17.7227 82.5635 18.3027 82.7402 18.924C82.9444 19.6425 83.0427 20.3871 83.0321 21.134Z" fill="#04000D"/>
<path d="M176.199 17.01C175.422 16.1519 174.234 15.7052 172.8 15.7052C169.598 15.7052 167.523 17.6604 166.653 20.3221H168.28C168.961 18.2465 170.517 17.0692 172.492 17.0692C174.498 17.0692 175.509 18.1522 175.509 20.1585C175.499 20.528 175.467 20.8966 175.414 21.2625H171.15C167.877 21.2625 165.402 23.0048 165.402 25.7388C165.402 27.8154 166.863 29.0639 169.101 29.0639C171.528 29.0639 173.554 27.8154 174.542 26.2125L174.111 28.7347L174.095 28.8261L174.025 29.2185H175.677L175.745 28.8261L177.064 21.3067C177.153 20.8566 177.201 20.3994 177.207 19.9407C177.209 18.7012 176.841 17.7166 176.199 17.01ZM169.715 27.6317C168.11 27.6317 167.101 26.8077 167.101 25.4407C167.101 23.7907 168.515 22.492 170.94 22.492H175.206L175.105 23.0109C174.892 24.292 174.236 25.4573 173.25 26.3023C172.264 27.1472 171.013 27.6179 169.715 27.6317Z" fill="#04000D"/>
<path d="M22.1896 19.2853H15.9589C16.1984 18.7422 16.5756 18.2712 17.0532 17.919C17.5307 17.5667 18.0919 17.3455 18.6811 17.2771C19.2704 17.2088 19.8673 17.2957 20.4127 17.5293C20.9581 17.7629 21.433 18.135 21.7904 18.6088C21.9495 18.8179 22.0834 19.0449 22.1896 19.2853Z" fill="#04000D"/>
<path d="M22.4032 0.428562C10.1856 0.428562 0.280884 10.3377 0.280884 22.5662C0.280884 34.7948 10.1856 44.7039 22.4032 44.7039C34.6209 44.7039 44.5266 34.7928 44.5266 22.5662C44.5266 10.3397 34.6219 0.428562 22.4032 0.428562ZM19.6189 29.2245L19.5988 29.2867C19.4253 29.2978 19.2498 29.3028 19.0733 29.3028C18.8105 29.3028 18.5497 29.2908 18.2929 29.2677C16.2006 29.0776 14.2493 28.1308 12.8046 26.6045C11.3598 25.0783 10.5207 23.0773 10.4444 20.9764C10.4444 20.8761 10.4384 20.7687 10.4384 20.6643C10.4384 20.5168 10.4384 20.3702 10.4504 20.2237C10.5624 18.0307 11.5046 15.9626 13.0855 14.4397C14.6665 12.9168 16.7676 12.0533 18.9619 12.0248H19.0733C21.0954 12.0237 23.0535 12.7343 24.6048 14.0321L22.8797 19.2913L22.4785 20.5218L22.0512 21.8265H15.8696C16.0931 22.4453 16.4905 22.9862 17.014 23.3842C17.5375 23.7822 18.1649 24.0203 18.8205 24.0697C18.8737 24.0697 18.9258 24.0767 18.979 24.0767H19.0733H21.31L21.0281 24.9339L19.6189 29.2245ZM34.3631 12.0218L30.2508 22.7318L29.7372 24.0697H33.3862L21.7653 40.0219L25.2759 29.3329H21.1635L21.2287 29.1322L21.4634 28.4166L22.1244 26.4002L22.8897 24.0667L23.1114 23.3933L23.6289 21.8145L25.9098 14.8541L26.5306 12.9612L26.6139 12.7063C26.7078 12.5017 26.8586 12.3284 27.0481 12.2071C27.2377 12.0857 27.4581 12.0214 27.6831 12.0218H34.3631Z" fill="#04000D"/>
</g>
<defs>
<clipPath id="clip0_32_6799">
<rect width="192.578" height="45" fill="white"/>
</clipPath>
</defs>
</svg>
