<svg width="100" height="22" viewBox="0 0 100 22" fill="none" xmlns="http://www.w3.org/2000/svg">
<path d="M16.0093 7.57732C16.0093 10.9851 13.3975 13.9398 8.68079 13.9398H3.96409V21.2116H0.100098V1.21484H8.22462C13.8477 1.21484 16.0093 4.16949 16.0093 7.57732ZM12.1482 7.69061C12.1482 5.75861 10.8424 4.62267 8.65395 4.62267H3.96707V10.7586H8.65395C10.8424 10.7586 12.1482 9.42285 12.1482 7.69061Z" fill="#05042D"/>
<path d="M21.0271 9.13975C21.9364 7.06465 22.7593 5.98535 26.4235 5.98535V9.6794C22.1898 9.39616 20.9704 10.9018 20.9704 14.7062V21.2118H17.333V6.21194H20.9704V7.03483C20.9704 7.68777 20.8005 8.25724 20.5441 8.76707C20.4308 9.02348 20.3443 9.36336 20.6872 9.42001C20.8571 9.44685 21.0002 9.22025 21.0271 9.13677V9.13975Z" fill="#05042D"/>
<path d="M41.3368 14.6227H30.4275C30.6839 16.8946 32.1598 18.2601 34.4317 18.2601C36.1639 18.2601 37.0464 17.3239 37.4728 15.9882H41.1668C40.5139 19.083 38.4119 21.4413 34.4048 21.4413C29.548 21.4413 26.8766 18.1736 26.8766 13.7133C26.8766 9.02646 29.7746 5.98535 34.3482 5.98535C37.8126 5.98535 41.4202 8.06046 41.4202 13.5136C41.4202 13.9101 41.3934 14.1963 41.3338 14.6227H41.3368ZM37.7858 12.1242C37.6427 10.3055 36.5634 8.94298 34.4615 8.94298C31.9898 8.94298 30.9403 10.3353 30.5706 12.1242H37.7858Z" fill="#05042D"/>
<path d="M45.2844 6.21387L48.6087 17.1797C48.7786 17.7492 48.8085 18.2888 48.8085 18.8285C48.8085 19.0283 48.8651 19.2548 49.1483 19.2548C49.4316 19.2548 49.4882 19.0283 49.4882 18.8285C49.4882 18.2888 49.5151 17.7492 49.688 17.1797L53.0123 6.21387H56.8763L51.7631 21.2137H46.5366L41.4233 6.21387H45.2873H45.2844Z" fill="#05042D"/>
<path d="M59.828 0.761719C60.8327 0.761719 61.6467 1.57566 61.6467 2.58042C61.6467 3.58518 60.8327 4.39912 59.828 4.39912C58.8232 4.39912 58.0093 3.58518 58.0093 2.58042C58.0093 1.57566 58.8232 0.761719 59.828 0.761719ZM58.0093 6.21484H61.6467V21.2146H58.0093V6.21484Z" fill="#05042D"/>
<path d="M77.6244 14.6227H66.7152C66.9716 16.8946 68.4474 18.2601 70.7193 18.2601C72.4515 18.2601 73.3341 17.3239 73.7574 15.9882H77.4515C76.7985 19.083 74.6966 21.4413 70.6895 21.4413C65.8327 21.4413 63.1613 18.1736 63.1613 13.7133C63.1613 9.02646 66.0592 5.98535 70.6328 5.98535C74.0973 5.98535 77.7049 8.06046 77.7049 13.5136C77.7049 13.9101 77.6751 14.1963 77.6184 14.6227H77.6244ZM74.0735 12.1242C73.9303 10.3055 72.8511 8.94298 70.7491 8.94298C68.2775 8.94298 67.228 10.3353 66.8583 12.1242H74.0735Z" fill="#05042D"/>
<path d="M81.8701 6.21387L83.6321 16.5536C83.7753 17.1797 83.7753 17.776 83.7753 18.3723C83.7753 18.5721 83.8319 18.7987 84.1151 18.7987C84.3984 18.7987 84.455 18.5721 84.455 18.3723C84.455 17.776 84.455 17.1797 84.5982 16.5536L86.8432 6.21387H91.1604L93.4054 16.5536C93.5485 17.1797 93.5485 17.776 93.5485 18.3723C93.5485 18.5721 93.6052 18.7987 93.8884 18.7987C94.1717 18.7987 94.2283 18.5721 94.2283 18.3723C94.2283 17.776 94.2283 17.1797 94.3714 16.5536L96.1335 6.21387H99.9975L96.2766 21.2137H91.5032L89.4848 11.6402C89.3417 10.9574 89.3417 10.221 89.3417 9.62468C89.3417 9.42492 89.285 9.19833 89.0018 9.19833C88.7186 9.19833 88.6619 9.42492 88.6619 9.62468C88.6619 10.221 88.6619 10.9604 88.5188 11.6402L86.5003 21.2137H81.727L78.0061 6.21387H81.8701Z" fill="#05042D"/>
</svg>
