<svg width="36" height="36" viewBox="0 0 36 36" fill="none" xmlns="http://www.w3.org/2000/svg">
<path d="M35.3738 20.6752C35.2903 27.2612 30.6929 32.7024 23.919 34.059C21.8051 34.4824 19.6167 34.3601 17.5356 33.8026C16.9035 33.6327 16.343 33.4836 15.8988 33.3643C15.1624 33.1675 14.3842 33.2242 13.6836 33.5253L8.96984 35.5497C7.9621 35.9821 6.84106 35.2427 6.84106 34.1455V18.7909C6.84106 12.2763 12.1242 6.99316 18.6388 6.99316C30.7346 6.99316 35.3768 13.3467 35.3768 20.6781L35.3738 20.6752ZM28.901 19.5213C28.901 15.7945 26.3787 13.6001 22.1569 13.6001H17.9739C17.0496 13.6001 16.3013 14.3485 16.3013 15.2727V19.5839C16.3013 22.8188 18.922 25.4396 22.1569 25.4396C26.3787 25.4396 28.901 22.8636 28.901 19.5183V19.5213ZM25.9106 22.5744C25.9106 18.8475 23.3883 16.6531 19.1665 16.6531H14.9835C14.0592 16.6531 13.3109 17.4015 13.3109 18.3258V22.637C13.3109 25.8719 15.9316 28.4926 19.1665 28.4926C23.3883 28.4926 25.9106 25.9166 25.9106 22.5714V22.5744Z" fill="url(#paint0_linear_452_1165)" />
<path d="M5.03422 2.6552L5.82133 5.78575C5.85115 5.90203 5.94059 5.99446 6.05985 6.02427L9.1904 6.81138C9.51836 6.89486 9.51836 7.36295 9.1904 7.44345L6.05985 8.23056C5.94357 8.26038 5.85115 8.34982 5.82133 8.46908L5.03422 11.5996C4.95074 11.9276 4.48265 11.9276 4.40215 11.5996L3.61504 8.46908C3.58523 8.3528 3.49578 8.26038 3.37652 8.23056L0.245972 7.44047C-0.0819906 7.35699 -0.0819906 6.8889 0.245972 6.8084L3.37652 6.02129C3.4928 5.99148 3.58523 5.90203 3.61504 5.78277L4.40215 2.65222C4.48563 2.32426 4.95372 2.32426 5.03422 2.65222V2.6552Z" fill="#3D25EF" />
<path d="M9.67046 0.508556L9.96861 1.69817C9.98948 1.78463 10.0581 1.8532 10.1445 1.87407L11.3341 2.17222C11.5786 2.23483 11.5786 2.58068 11.3341 2.64031L10.1445 2.93846C10.0581 2.95933 9.98948 3.0279 9.96861 3.11437L9.67046 4.30398C9.60785 4.54846 9.262 4.54846 9.20237 4.30398L8.90422 3.11437C8.88335 3.0279 8.81478 2.95933 8.72832 2.93846L7.53871 2.64031C7.29423 2.5777 7.29423 2.23185 7.53871 2.17222L8.72832 1.87407C8.81478 1.8532 8.88335 1.78463 8.90422 1.69817L9.20237 0.508556C9.26498 0.264075 9.61083 0.264075 9.67046 0.508556Z" fill="#3D25EF" />
<defs>
<linearGradient id="paint0_linear_452_1165" x1="8.23341" y1="29.7299" x2="37.5115" y2="7.85183" gradientUnits="userSpaceOnUse">
<stop stop-color="#3D25EF" />
<stop offset="0.89" stop-color="#9626ED" />
</linearGradient>
</defs>
</svg>