<svg xmlns="http://www.w3.org/2000/svg" xmlns:xlink="http://www.w3.org/1999/xlink" width="1000" zoomAndPan="magnify" viewBox="0 0 750 374.999991" height="500" preserveAspectRatio="xMidYMid meet" version="1.0"><defs><clipPath id="f7f4c6381a"><path d="M 15 154.890625 L 124 154.890625 L 124 277 L 15 277 Z M 15 154.890625 " clip-rule="nonzero"/></clipPath><clipPath id="607dffe3cb"><path d="M 485 193 L 556 193 L 556 285.390625 L 485 285.390625 Z M 485 193 " clip-rule="nonzero"/></clipPath></defs><path fill="#ffffff" d="M 1.804688 173.691406 L 1.804688 257.378906 C 1.804688 267.726562 10.253906 276.179688 20.597656 276.179688 L 43.484375 276.179688 L 2.402344 168.984375 C 2.007812 170.5 1.804688 172.070312 1.804688 173.691406 Z M 1.804688 173.691406 " fill-opacity="1" fill-rule="nonzero"/><g clip-path="url(#f7f4c6381a)"><path fill="#ffffff" d="M 104.210938 154.890625 L 20.597656 154.890625 C 18.71875 154.890625 16.878906 155.175781 15.164062 155.703125 L 78.105469 170.664062 C 87.082031 172.800781 85.269531 189.371094 76.253906 191.359375 L 39.292969 198.6875 L 39.253906 198.6875 C 37.671875 199.054688 36.523438 200.296875 36.089844 201.785156 C 35.804688 202.761719 43.09375 251.019531 46.917969 276.167969 L 104.210938 276.167969 C 114.554688 276.167969 123.003906 267.710938 123.003906 257.363281 L 123.003906 173.691406 C 123.003906 163.34375 114.554688 154.890625 104.210938 154.890625 Z M 98.628906 228.972656 L 74.929688 234.695312 C 74.929688 234.695312 74.914062 234.695312 74.890625 234.707031 C 73.886719 234.980469 73.183594 235.804688 72.929688 236.792969 C 72.5625 238.292969 73.820312 275.136719 73.820312 275.136719 L 50.109375 216.152344 C 48.609375 212.703125 51.570312 208.96875 55.273438 209.644531 L 98.25 217.976562 C 104.117188 219.125 104.398438 227.417969 98.613281 228.945312 Z M 98.628906 228.972656 " fill-opacity="1" fill-rule="nonzero"/></g><path fill="#ffffff" d="M 244.15625 172.976562 C 249.105469 175.449219 252.917969 178.953125 255.621094 183.5 C 258.3125 188.042969 259.664062 193.320312 259.664062 199.351562 C 259.664062 205.382812 258.3125 210.660156 255.621094 215.203125 C 252.933594 219.75 249.105469 223.253906 244.15625 225.726562 C 239.210938 228.203125 233.503906 229.433594 227.03125 229.433594 L 205.320312 229.433594 L 205.320312 263.695312 L 189.8125 263.695312 L 189.8125 169.257812 L 227.03125 169.257812 C 233.503906 169.257812 239.210938 170.488281 244.15625 172.960938 Z M 225.679688 215.933594 C 231.246094 215.933594 235.683594 214.433594 238.953125 211.417969 C 242.226562 208.402344 243.875 204.382812 243.875 199.339844 C 243.875 194.292969 242.25 190.167969 239.019531 187.191406 C 235.789062 184.230469 231.382812 182.742188 225.8125 182.742188 L 205.320312 182.742188 L 205.320312 215.933594 Z M 225.679688 215.933594 " fill-opacity="1" fill-rule="nonzero"/><path fill="#ffffff" d="M 330.71875 263.695312 L 323.027344 263.695312 C 318.523438 263.695312 315.292969 262.75 313.320312 260.855469 C 311.347656 258.960938 310.347656 256.230469 310.347656 252.632812 C 305.128906 260.542969 297.53125 264.507812 287.554688 264.507812 C 279.820312 264.507812 273.617188 262.707031 268.953125 259.109375 C 264.273438 255.511719 261.933594 250.5625 261.933594 244.273438 C 261.933594 237.171875 264.449219 231.707031 269.492188 227.878906 C 274.519531 224.050781 281.847656 222.144531 291.472656 222.144531 L 308.871094 222.144531 L 308.871094 217.964844 C 308.871094 214.09375 307.519531 211.066406 304.832031 208.859375 C 302.140625 206.65625 298.410156 205.558594 293.636719 205.558594 C 289.417969 205.558594 285.929688 206.480469 283.1875 208.332031 C 280.441406 210.171875 278.808594 212.621094 278.265625 215.691406 L 263.976562 215.691406 C 264.691406 208.765625 267.75 203.394531 273.140625 199.566406 C 278.535156 195.738281 285.59375 193.832031 294.3125 193.832031 C 303.574219 193.832031 310.726562 195.996094 315.753906 200.3125 C 320.78125 204.625 323.3125 210.835938 323.3125 218.925781 L 323.3125 246.179688 C 323.3125 249.410156 324.839844 251.035156 327.894531 251.035156 L 330.734375 251.035156 L 330.734375 263.722656 Z M 290.8125 232.9375 C 286.324219 232.9375 282.847656 233.816406 280.429688 235.5625 C 278.007812 237.320312 276.792969 239.902344 276.792969 243.3125 C 276.792969 246.289062 277.941406 248.667969 280.226562 250.46875 C 282.523438 252.265625 285.648438 253.160156 289.59375 253.160156 C 295.625 253.160156 300.316406 251.535156 303.679688 248.300781 C 307.046875 245.070312 308.777344 240.742188 308.871094 235.34375 L 308.871094 232.921875 L 290.796875 232.921875 Z M 290.8125 232.9375 " fill-opacity="1" fill-rule="nonzero"/><path fill="#ffffff" d="M 369.152344 264.507812 C 362.324219 264.507812 356.296875 263.046875 351.078125 260.125 C 345.859375 257.203125 341.84375 253.035156 339.007812 247.640625 C 336.179688 242.242188 334.761719 236.035156 334.761719 229.027344 C 334.761719 222.019531 336.195312 215.855469 339.074219 210.539062 C 341.953125 205.234375 346.023438 201.109375 351.28125 198.1875 C 356.539062 195.265625 362.625 193.804688 369.558594 193.804688 C 378.183594 193.804688 385.242188 196.078125 390.730469 200.625 C 396.21875 205.167969 399.625 211.347656 400.976562 219.167969 L 386.011719 219.167969 C 385.023438 215.203125 383.050781 212.066406 380.078125 209.726562 C 377.101562 207.386719 373.464844 206.222656 369.152344 206.222656 C 363.3125 206.222656 358.609375 208.332031 355.066406 212.566406 C 351.511719 216.785156 349.738281 222.277344 349.738281 229.027344 C 349.738281 235.777344 351.511719 241.417969 355.066406 245.691406 C 358.621094 249.964844 363.3125 252.101562 369.152344 252.101562 C 373.65625 252.101562 377.371094 250.914062 380.347656 248.53125 C 383.308594 246.152344 385.242188 242.933594 386.144531 238.886719 L 400.976562 238.886719 C 399.625 246.894531 396.164062 253.171875 390.59375 257.703125 C 385.023438 262.25 377.871094 264.519531 369.152344 264.519531 Z M 369.152344 264.507812 " fill-opacity="1" fill-rule="nonzero"/><path fill="#ffffff" d="M 423.703125 198.203125 C 428.785156 195.28125 434.597656 193.820312 441.167969 193.820312 C 447.738281 193.820312 453.6875 195.171875 458.769531 197.863281 C 463.851562 200.554688 467.855469 204.382812 470.773438 209.332031 C 473.695312 214.285156 475.195312 220.085938 475.289062 226.742188 C 475.289062 228.539062 475.152344 230.378906 474.882812 232.273438 L 422.835938 232.273438 L 422.835938 233.085938 C 423.203125 239.105469 425.082031 243.878906 428.5 247.382812 C 431.921875 250.886719 436.449219 252.644531 442.113281 252.644531 C 446.601562 252.644531 450.386719 251.589844 453.441406 249.480469 C 456.5 247.371094 458.527344 244.378906 459.511719 240.511719 L 474.074219 240.511719 C 472.816406 247.53125 469.421875 253.28125 463.894531 257.785156 C 458.363281 262.273438 451.46875 264.535156 443.195312 264.535156 C 436.003906 264.535156 429.730469 263.074219 424.390625 260.152344 C 419.039062 257.230469 414.902344 253.117188 411.980469 247.800781 C 409.0625 242.5 407.601562 236.332031 407.601562 229.324219 C 407.601562 222.320312 409.019531 215.988281 411.84375 210.644531 C 414.671875 205.289062 418.632812 201.152344 423.714844 198.230469 Z M 454.445312 209.792969 C 451.078125 206.96875 446.820312 205.546875 441.695312 205.546875 C 436.9375 205.546875 432.8125 207.007812 429.351562 209.929688 C 425.890625 212.851562 423.890625 216.746094 423.351562 221.601562 L 460.433594 221.601562 C 459.808594 216.570312 457.808594 212.632812 454.429688 209.792969 Z M 454.445312 209.792969 " fill-opacity="1" fill-rule="nonzero"/><g clip-path="url(#607dffe3cb)"><path fill="#ffffff" d="M 551.0625 210.335938 C 553.847656 215.691406 555.238281 221.953125 555.238281 229.148438 C 555.238281 236.34375 553.847656 242.351562 551.0625 247.695312 C 548.277344 253.050781 544.410156 257.1875 539.464844 260.109375 C 534.515625 263.03125 528.90625 264.492188 522.605469 264.492188 C 517.480469 264.492188 513.035156 263.546875 509.261719 261.652344 C 505.492188 259.757812 502.476562 257.203125 500.230469 253.957031 L 500.230469 285.363281 L 485.671875 285.363281 L 485.671875 194.617188 L 498.351562 194.617188 L 500.109375 204.871094 C 505.679688 197.5 513.195312 193.804688 522.632812 193.804688 C 528.917969 193.804688 534.542969 195.226562 539.492188 198.054688 C 544.4375 200.878906 548.304688 204.976562 551.089844 210.335938 Z M 540.410156 229.164062 C 540.410156 222.332031 538.542969 216.800781 534.8125 212.566406 C 531.082031 208.332031 526.203125 206.222656 520.183594 206.222656 C 514.167969 206.222656 509.304688 208.320312 505.625 212.5 C 501.933594 216.679688 500.097656 222.144531 500.097656 228.894531 C 500.097656 235.640625 501.933594 241.445312 505.625 245.757812 C 509.316406 250.074219 514.167969 252.238281 520.183594 252.238281 C 526.203125 252.238281 531.082031 250.074219 534.8125 245.757812 C 538.542969 241.445312 540.410156 235.914062 540.410156 229.164062 Z M 540.410156 229.164062 " fill-opacity="1" fill-rule="nonzero"/></g><path fill="#ffffff" d="M 631.6875 263.695312 L 623.996094 263.695312 C 619.507812 263.695312 616.265625 262.75 614.289062 260.855469 C 612.316406 258.960938 611.328125 256.230469 611.328125 252.632812 C 606.109375 260.542969 598.511719 264.507812 588.535156 264.507812 C 580.804688 264.507812 574.597656 262.707031 569.933594 259.109375 C 565.257812 255.511719 562.917969 250.5625 562.917969 244.273438 C 562.917969 237.171875 565.433594 231.707031 570.476562 227.878906 C 575.503906 224.050781 582.832031 222.144531 592.457031 222.144531 L 609.855469 222.144531 L 609.855469 217.964844 C 609.855469 214.09375 608.503906 211.066406 605.8125 208.859375 C 603.125 206.65625 599.390625 205.558594 594.621094 205.558594 C 590.402344 205.558594 586.914062 206.480469 584.171875 208.332031 C 581.425781 210.171875 579.789062 212.621094 579.25 215.691406 L 564.960938 215.691406 C 565.675781 208.765625 568.730469 203.394531 574.125 199.566406 C 579.519531 195.738281 586.578125 193.832031 595.296875 193.832031 C 604.554688 193.832031 611.707031 195.996094 616.738281 200.3125 C 621.765625 204.625 624.292969 210.835938 624.292969 218.925781 L 624.292969 246.179688 C 624.292969 249.410156 625.820312 251.035156 628.875 251.035156 L 631.703125 251.035156 L 631.703125 263.722656 Z M 591.78125 232.9375 C 587.28125 232.9375 583.820312 233.816406 581.398438 235.5625 C 578.964844 237.320312 577.761719 239.902344 577.761719 243.3125 C 577.761719 246.289062 578.910156 248.667969 581.195312 250.46875 C 583.496094 252.265625 586.617188 253.160156 590.566406 253.160156 C 596.582031 253.160156 601.285156 251.535156 604.652344 248.300781 C 608.015625 245.070312 609.746094 240.742188 609.84375 235.34375 L 609.84375 232.921875 L 591.78125 232.921875 Z M 591.78125 232.9375 " fill-opacity="1" fill-rule="nonzero"/><path fill="#ffffff" d="M 676.464844 208.25 L 669.988281 208.25 C 663.972656 208.25 659.605469 210.214844 656.902344 214.121094 C 654.210938 218.03125 652.859375 223.007812 652.859375 229.027344 L 652.859375 263.695312 L 638.300781 263.695312 L 638.300781 194.617188 L 651.25 194.617188 L 652.871094 205.003906 C 654.847656 201.773438 657.414062 199.230469 660.566406 197.375 C 663.714844 195.539062 667.933594 194.617188 673.246094 194.617188 L 676.476562 194.617188 L 676.476562 208.238281 Z M 676.464844 208.25 " fill-opacity="1" fill-rule="nonzero"/><path fill="#ffffff" d="M 748.195312 263.695312 L 735.511719 263.695312 L 733.757812 253.308594 C 728.265625 260.773438 720.765625 264.507812 711.234375 264.507812 C 704.933594 264.507812 699.324219 263.085938 694.375 260.257812 C 689.429688 257.417969 685.5625 253.335938 682.777344 247.976562 C 679.992188 242.621094 678.597656 236.359375 678.597656 229.164062 C 678.597656 221.96875 680.019531 215.960938 682.84375 210.617188 C 685.683594 205.261719 689.5625 201.125 694.511719 198.203125 C 699.457031 195.28125 705.027344 193.820312 711.234375 193.820312 C 716.261719 193.820312 720.667969 194.738281 724.441406 196.578125 C 728.214844 198.417969 731.269531 200.960938 733.609375 204.207031 L 733.609375 169.257812 L 748.167969 169.257812 L 748.167969 263.695312 Z M 733.769531 229.433594 C 733.769531 222.507812 731.929688 216.910156 728.242188 212.632812 C 724.550781 208.359375 719.695312 206.222656 713.679688 206.222656 C 707.664062 206.222656 702.796875 208.359375 699.121094 212.632812 C 695.429688 216.910156 693.589844 222.414062 693.589844 229.164062 C 693.589844 235.914062 695.429688 241.554688 699.121094 245.828125 C 702.8125 250.101562 707.664062 252.238281 713.679688 252.238281 C 719.695312 252.238281 724.5625 250.128906 728.242188 245.894531 C 731.929688 241.675781 733.769531 236.183594 733.769531 229.433594 Z M 733.769531 229.433594 " fill-opacity="1" fill-rule="nonzero"/></svg>